<svg width="1080" height="1080" viewBox="0 0 1080 1080" fill="none" xmlns="http://www.w3.org/2000/svg">
<g filter="url(#filter0_d_46_2)">
<path d="M226.504 578.744C226.888 578.872 227.272 579 227.784 579H205C207.56 579 208.84 576.056 207.432 571.832L180.04 484.28C178.76 479.928 175.688 476.984 173 476.984H195.784C193.352 476.984 192.072 479.672 193.096 483.64L220.872 572.344C221 572.728 221.256 573.112 221.384 573.496C221.512 573.112 221.768 572.728 221.896 572.344L249.544 483.64C250.696 479.672 249.416 476.984 246.984 476.984H259.528C256.84 476.984 253.768 479.928 252.488 484.28L225.096 571.832C223.944 575.416 224.712 578.104 226.504 578.744ZM362.128 476.984H362.256V491.064C362.256 491.064 361.488 480.44 339.344 478.136H311.696C310.416 479.416 309.52 481.592 309.52 484.28V526.776H323.984C334.48 524.984 335.504 520.12 335.504 520.12V527.416V534.584C335.504 534.584 334.48 529.72 323.984 527.928H309.52V571.832C309.52 574.392 310.416 576.568 311.568 577.72H339.472C361.488 575.416 362.256 564.792 362.256 564.792V579H291.6C294.032 579 296.08 576.312 296.336 572.344V483.64C296.08 479.672 294.032 476.984 291.6 476.984H362.128ZM417.109 476.984C414.549 476.984 412.373 479.8 412.373 484.152V571.704C412.373 574.392 413.269 576.568 414.549 577.72H442.197C464.213 575.416 464.981 564.792 464.981 564.792V579L394.325 578.872C396.885 578.872 398.933 576.312 399.189 572.216V483.64C398.933 479.672 396.885 476.984 394.325 476.984H417.109ZM519.834 476.984C517.274 476.984 515.098 479.8 515.098 484.152V571.704C515.098 574.392 515.994 576.568 517.274 577.72H544.922C566.938 575.416 567.706 564.792 567.706 564.792V579L497.05 578.872C499.61 578.872 501.658 576.312 501.914 572.216V483.64C501.658 479.672 499.61 476.984 497.05 476.984H519.834ZM595.511 548.152C595.511 547.512 595.511 483.64 595.511 483.64C595.383 479.672 593.335 476.984 590.775 476.984H613.559C610.999 476.984 608.823 479.928 608.823 484.152V560.056C608.823 572.344 618.679 577.848 630.967 577.848C643.127 577.848 653.111 572.344 653.111 560.056V483.64C652.855 479.672 650.807 476.984 648.375 476.984H671.159C668.471 476.984 666.295 479.928 666.295 484.28C666.295 484.28 666.295 549.432 666.295 550.072C665.271 568.632 649.783 579 630.967 579C611.383 579 595.511 567.608 595.511 548.152ZM703.25 476.984H777.234V491.064C777.234 491.064 775.954 478.648 754.322 478.136H748.946C747.666 479.416 746.77 481.592 746.77 484.28V571.832C746.77 576.056 748.946 579 751.634 579H728.85C731.282 579 733.458 576.312 733.586 572.344V483.64C733.458 481.208 732.69 479.288 731.538 478.136H726.162C704.53 478.648 703.25 491.064 703.25 491.064V476.984ZM851.487 476.856C878.111 476.856 899.743 499.768 899.743 527.928C899.743 556.088 878.111 579 851.487 579C824.735 579 803.103 556.088 803.103 527.928C803.103 499.768 824.735 476.856 851.487 476.856ZM851.487 478.264C832.031 478.264 816.415 500.536 816.415 528.056C816.415 555.448 832.031 577.72 851.487 577.72C870.815 577.72 886.431 555.448 886.431 528.056C886.431 500.536 870.815 478.264 851.487 478.264Z" fill="white"/>
</g>
<g filter="url(#filter1_d_46_2)">
<path d="M409.672 664.976C410.013 664.976 410.205 665.147 410.248 665.488C410.248 665.829 410.056 666 409.672 666H404.232C403.891 666 403.72 665.829 403.72 665.488V661.392C403.336 662.16 402.824 662.821 402.184 663.376C400.392 665.125 398.173 666 395.528 666C390.536 665.915 386.867 663.739 384.52 659.472C383.411 657.339 382.792 654.949 382.664 652.304L382.6 652.24V652.112V651.984V651.792V651.664V651.6V651.472V651.344V651.28V651.152V650.96V650.704V650.64V650.512V650.32V650.192V650.064V650L382.664 649.744V649.68V649.488V649.36V649.232V649.168L382.728 648.912V648.848V648.72V648.592V648.528V648.4L382.792 648.272V648.08V647.952L382.856 647.888V647.632V647.568L382.92 647.44V647.248V647.12L382.984 647.056V646.8L383.048 646.608V646.48L383.112 646.288V646.224L383.176 645.968L383.24 645.904V645.776L383.304 645.584V645.456L383.368 645.392V645.264L383.432 645.072L383.496 644.944L383.56 644.752V644.688V644.56C383.603 644.517 383.645 644.432 383.688 644.304C383.688 644.261 383.709 644.176 383.752 644.048C383.795 643.963 383.837 643.877 383.88 643.792C385.288 639.952 387.507 637.264 390.536 635.728C392.243 634.875 394.056 634.448 395.976 634.448C398.195 634.448 400.115 634.96 401.736 635.984C402.547 636.539 403.208 637.157 403.72 637.84V630.288C403.72 628.923 403.592 627.984 403.336 627.472C403.123 626.96 402.653 626.555 401.928 626.256C401.587 626.128 401.48 625.915 401.608 625.616C401.651 625.488 401.736 625.381 401.864 625.296C403.4 624.571 404.488 624.016 405.128 623.632C406.109 622.992 406.941 622.331 407.624 621.648C407.837 621.392 408.072 621.371 408.328 621.584C408.456 621.712 408.52 621.84 408.52 621.968V664.976H409.672ZM403.72 657.04V641.168V640.976C403.635 639.269 402.803 637.904 401.224 636.88C399.731 635.941 397.981 635.472 395.976 635.472C394.867 635.472 393.843 635.771 392.904 636.368C392.008 636.965 391.261 637.776 390.664 638.8C390.067 639.781 389.576 640.763 389.192 641.744C388.851 642.725 388.552 643.771 388.296 644.88C387.827 647.056 387.613 649.317 387.656 651.664C387.699 654.053 387.997 656.208 388.552 658.128C389.149 660.219 390.024 661.883 391.176 663.12C392.371 664.357 393.8 664.976 395.464 664.976C395.464 664.976 395.485 664.976 395.528 664.976C397.917 664.933 399.901 664.165 401.48 662.672C402.973 661.221 403.72 659.344 403.72 657.04ZM445.155 659.152C445.283 658.811 445.496 658.725 445.795 658.896C446.136 659.067 446.222 659.301 446.051 659.6C445.155 661.52 443.662 663.056 441.571 664.208C439.566 665.317 437.304 665.915 434.787 666C431.203 666.085 428.088 665.104 425.443 663.056C422.798 661.008 421.07 658.149 420.259 654.48C419.534 651.195 419.683 647.909 420.707 644.624C421.688 641.424 423.416 638.928 425.891 637.136C428.408 635.301 431.416 634.384 434.915 634.384C438.584 634.427 441.635 635.493 444.067 637.584C446.542 639.632 447.736 642.405 447.651 645.904C447.608 647.312 447.331 648.549 446.819 649.616C446.35 650.683 445.624 651.536 444.643 652.176C443.704 652.773 442.574 653.072 441.251 653.072H424.995C425.208 654.48 425.507 655.824 425.891 657.104C426.659 659.408 427.79 661.285 429.283 662.736C430.776 664.144 432.59 664.891 434.723 664.976C437.07 664.933 439.182 664.379 441.059 663.312C442.936 662.245 444.302 660.859 445.155 659.152ZM424.867 650.32C424.867 650.917 424.888 651.493 424.931 652.048H437.539C440.184 651.792 441.934 650.363 442.787 647.76C443.171 646.608 443.32 645.392 443.235 644.112C443.15 642.832 442.83 641.616 442.275 640.464C441.592 638.971 440.568 637.776 439.203 636.88C437.88 635.941 436.28 635.472 434.403 635.472C432.312 635.6 430.542 636.411 429.091 637.904C427.64 639.355 426.552 641.232 425.827 643.536C425.144 645.669 424.824 647.931 424.867 650.32ZM518.327 649.296V649.36V649.488V649.68V649.808V649.936V650.128V650.256V650.32V650.448L518.263 650.64V650.768V650.96V651.088V651.216V651.28L518.199 651.536V651.6V651.728V651.856V651.92V652.048L518.135 652.112V652.368V652.432L518.071 652.56V652.688V652.752V652.88L518.007 653.008V653.2V653.328L517.943 653.392V653.52L517.879 653.712V653.84V653.904L517.815 654.16V654.224L517.751 654.416L517.687 654.544V654.672V654.736L517.623 654.928L517.559 655.056V655.184L517.495 655.248V655.376L517.431 655.44V655.632L517.367 655.76V655.888C517.325 655.888 517.282 655.931 517.239 656.016C517.239 656.059 517.239 656.101 517.239 656.144C517.239 656.144 517.218 656.229 517.175 656.4C517.133 656.528 517.09 656.592 517.047 656.592C517.047 656.677 517.026 656.763 516.983 656.848C516.941 657.019 516.877 657.189 516.791 657.36C516.791 657.403 516.77 657.445 516.727 657.488C516.727 657.531 516.706 657.573 516.663 657.616C516.621 657.787 516.557 657.936 516.471 658.064C516.429 658.149 516.386 658.235 516.343 658.32C516.215 658.576 516.109 658.811 516.023 659.024H515.959C515.917 659.109 515.895 659.195 515.895 659.28H515.831C515.831 659.323 515.81 659.387 515.767 659.472H515.703C515.661 659.557 515.618 659.643 515.575 659.728C514.21 661.989 512.482 663.653 510.391 664.72C510.007 664.933 509.623 665.104 509.239 665.232H509.175C508.706 665.445 508.215 665.595 507.703 665.68C507.533 665.723 507.362 665.765 507.191 665.808C507.149 665.808 507.063 665.829 506.935 665.872C506.85 665.872 506.765 665.872 506.679 665.872H506.615C506.487 665.915 506.317 665.936 506.103 665.936C505.933 665.979 505.741 666 505.527 666H505.463C505.293 666 505.122 666 504.951 666C502.733 666 500.813 665.467 499.191 664.4C498.381 663.888 497.719 663.291 497.207 662.608V682.064H498.423C498.765 682.064 498.935 682.235 498.935 682.576C498.935 682.917 498.765 683.088 498.423 683.088H491.255C490.914 683.088 490.743 682.917 490.743 682.576C490.743 682.235 490.914 682.064 491.255 682.064H492.407V643.28C492.407 641.872 492.301 640.912 492.087 640.4C491.874 639.888 491.383 639.504 490.615 639.248C490.317 639.12 490.231 638.885 490.359 638.544C490.402 638.416 490.487 638.331 490.615 638.288C492.109 637.52 493.197 636.944 493.879 636.56C494.861 635.963 495.671 635.301 496.311 634.576C496.567 634.32 496.823 634.32 497.079 634.576C497.165 634.661 497.207 634.789 497.207 634.96V638.992C497.634 638.267 498.146 637.605 498.743 637.008C500.493 635.301 502.711 634.448 505.399 634.448C505.399 634.448 505.421 634.448 505.463 634.448H505.655C505.741 634.448 505.826 634.448 505.911 634.448C506.125 634.448 506.295 634.448 506.423 634.448H506.487C506.573 634.448 506.658 634.469 506.743 634.512C506.786 634.512 506.85 634.512 506.935 634.512C507.063 634.512 507.17 634.512 507.255 634.512C507.426 634.555 507.597 634.597 507.767 634.64C507.81 634.64 507.895 634.64 508.023 634.64C508.151 634.683 508.237 634.704 508.279 634.704C508.365 634.704 508.429 634.725 508.471 634.768H508.535C508.578 634.768 508.642 634.789 508.727 634.832H508.791C508.791 634.832 508.855 634.853 508.983 634.896C509.069 634.896 509.154 634.917 509.239 634.96L509.431 635.024H509.495L509.687 635.088H509.751C509.837 635.131 509.879 635.152 509.879 635.152H509.943C510.029 635.195 510.093 635.216 510.135 635.216V635.28C510.178 635.28 510.242 635.301 510.327 635.344H510.391C510.477 635.387 510.541 635.408 510.583 635.408H510.647L510.775 635.472L510.839 635.536L510.967 635.6H511.031L511.223 635.728L511.415 635.792L511.479 635.856C511.522 635.856 511.565 635.877 511.607 635.92H511.671L511.799 636.048H511.863L511.991 636.176H512.055L512.183 636.304H512.247L512.375 636.368L512.439 636.432L512.567 636.496L512.631 636.56L512.759 636.688H512.823L512.951 636.816L513.143 636.944L513.335 637.072L513.463 637.2L513.527 637.264L513.655 637.392H513.719L513.783 637.52L513.847 637.584L513.975 637.648V637.712L514.103 637.84H514.167C514.21 637.925 514.253 637.968 514.295 637.968L514.359 638.032L514.423 638.16L514.487 638.224L514.615 638.288V638.352L514.743 638.48L514.807 638.544L514.871 638.672L514.935 638.736L514.999 638.864H515.063L515.191 638.992V639.056L515.319 639.184V639.248L515.447 639.376V639.44L515.575 639.568V639.632L515.703 639.76L515.831 639.952V640.016L515.959 640.144L516.023 640.336L516.087 640.4C516.173 640.528 516.237 640.635 516.279 640.72V640.784L516.407 640.912L516.471 641.104V641.168L516.599 641.36V641.424L516.727 641.552L516.791 641.744C516.877 641.915 516.941 642.064 516.983 642.192C517.026 642.363 517.09 642.512 517.175 642.64V642.704L517.239 642.832V642.896L517.303 643.024V643.088L517.367 643.216V643.28L517.431 643.408V643.472L517.495 643.6L517.559 643.792V643.856L517.623 643.984V644.112L517.687 644.176V644.304V644.368L517.751 644.496V644.56L517.815 644.688V644.752V644.88L517.879 645.072V645.2L517.943 645.264V645.392V645.52L518.007 645.584V645.712V645.776L518.071 645.904V646.032V646.224L518.135 646.288V646.416V646.608V646.736L518.199 646.864V646.928V647.12V647.248L518.263 647.376V647.44V647.696V647.76V647.888V648.016V648.08L518.327 648.208V648.336V648.4V648.656V648.72V648.976V649.04V649.296ZM512.631 655.568C513.101 653.392 513.314 651.131 513.271 648.784C513.229 646.395 512.93 644.219 512.375 642.256C511.735 640.165 510.839 638.523 509.687 637.328C508.535 636.091 507.106 635.472 505.399 635.472C503.01 635.515 501.026 636.283 499.447 637.776C497.997 639.184 497.25 641.019 497.207 643.28V659.344V659.472C497.293 661.179 498.125 662.544 499.703 663.568C501.197 664.507 502.946 664.976 504.951 664.976C505.122 664.976 505.293 664.976 505.463 664.976C507.17 664.848 508.642 663.931 509.879 662.224C511.117 660.475 512.034 658.256 512.631 655.568ZM560.141 664.976V649.488C561.037 649.275 561.826 648.997 562.509 648.656C563.533 648.187 564.343 647.632 564.941 646.992V664.976H566.093C566.434 664.976 566.605 665.147 566.605 665.488C566.605 665.829 566.434 666 566.093 666H558.925C558.583 666 558.413 665.829 558.413 665.488C558.413 665.147 558.583 664.976 558.925 664.976H560.141ZM552.589 646.352V648.208C554.039 648.251 555.234 648.251 556.173 648.208C557.623 648.08 558.946 647.845 560.141 647.504V643.152C560.141 641.744 560.013 640.784 559.757 640.272C559.543 639.76 559.074 639.376 558.349 639.12C558.007 638.992 557.901 638.757 558.029 638.416C558.071 638.288 558.157 638.203 558.285 638.16C559.821 637.435 560.909 636.859 561.549 636.432C562.53 635.835 563.362 635.195 564.045 634.512C564.301 634.256 564.535 634.235 564.749 634.448C564.877 634.576 564.941 634.704 564.941 634.832V642C565.026 641.744 565.111 641.552 565.197 641.424C566.391 638.693 568.226 636.731 570.701 635.536C572.919 634.469 575.287 634.128 577.805 634.512C578.914 634.64 579.938 634.939 580.877 635.408H580.941C581.538 635.707 582.093 636.027 582.605 636.368C584.269 637.563 585.293 639.013 585.677 640.72V640.784C585.719 640.955 585.741 641.104 585.741 641.232C585.826 642.085 585.677 642.789 585.293 643.344C584.951 643.899 584.482 644.219 583.885 644.304C583.799 644.347 583.735 644.368 583.693 644.368C583.565 644.368 583.437 644.368 583.309 644.368C582.797 644.325 582.37 644.069 582.029 643.6H581.965C581.623 643.131 581.431 642.491 581.389 641.68C581.346 641.253 581.346 640.784 581.389 640.272C581.517 638.907 581.197 637.797 580.429 636.944C579.618 636.091 578.445 635.579 576.909 635.408C574.861 635.28 572.962 635.643 571.213 636.496C568.951 637.563 567.266 639.333 566.157 641.808C565.687 642.789 565.346 643.856 565.133 645.008C564.749 646.203 563.746 647.163 562.125 647.888C560.546 648.613 558.583 649.061 556.237 649.232C555.298 649.275 554.082 649.275 552.589 649.232V664.912H553.741C554.082 664.912 554.253 665.104 554.253 665.488C554.253 665.829 554.082 666 553.741 666H548.301C547.917 666 547.725 665.829 547.725 665.488V661.52C546.999 662.672 546.039 663.632 544.845 664.4C542.754 665.723 540.301 666.299 537.485 666.128C534.711 665.957 532.407 665.083 530.573 663.504L530.445 663.376L530.381 663.312L530.253 663.184C530.167 663.099 530.125 663.056 530.125 663.056L529.997 662.928C529.997 662.928 529.975 662.885 529.933 662.8L529.805 662.736C529.805 662.693 529.762 662.651 529.677 662.608C528.397 661.029 527.757 659.237 527.757 657.232V657.168V657.104V656.976V656.912V656.848V656.784V656.72V656.656L527.821 656.592V656.528V656.464V656.4V656.336V656.272V656.208V656.08L527.885 655.952V655.824V655.76L527.949 655.632V655.504L528.013 655.44V655.312V655.248V655.184L528.077 655.12V655.056L528.141 654.928V654.8L528.205 654.736V654.672L528.269 654.544V654.48L528.333 654.416V654.288L528.397 654.224V654.16L528.461 654.096V654.032L528.525 653.904L528.589 653.84C529.527 651.877 530.999 650.427 533.005 649.488C535.01 648.549 537.271 648.059 539.789 648.016H547.725V646.864C547.725 646.565 547.725 646.331 547.725 646.16C547.639 642.661 546.978 640.016 545.741 638.224C544.461 636.389 542.562 635.472 540.045 635.472H539.789C539.234 635.515 538.679 635.579 538.125 635.664C536.717 635.963 535.693 636.581 535.053 637.52C534.413 638.459 534.178 639.632 534.349 641.04C534.647 642.064 534.562 642.917 534.093 643.6C533.837 643.984 533.495 644.24 533.069 644.368C532.898 644.411 532.727 644.432 532.557 644.432C532.429 644.432 532.279 644.411 532.109 644.368C531.597 644.283 531.17 643.984 530.829 643.472C530.487 642.96 530.317 642.32 530.317 641.552C530.317 639.717 531.298 638.075 533.261 636.624C534.583 635.643 536.141 634.981 537.933 634.64H537.997C538.551 634.512 539.127 634.448 539.725 634.448C540.151 634.405 540.557 634.405 540.941 634.448H541.005H541.069H541.133H541.261C544.802 634.661 547.575 635.835 549.581 637.968C551.586 640.059 552.589 642.853 552.589 646.352ZM539.789 649.04C538.082 649.04 536.631 649.488 535.437 650.384C534.242 651.28 533.367 652.432 532.813 653.84C532.301 655.163 532.109 656.528 532.237 657.936C532.365 659.387 532.834 660.645 533.645 661.712C535.522 664.315 538.573 665.189 542.797 664.336C543.309 664.123 543.799 663.867 544.269 663.568C545.847 662.544 546.999 661.093 547.725 659.216V649.04H539.789ZM618.414 628.816C618.414 628.816 618.414 628.859 618.414 628.944C618.414 628.944 618.414 628.965 618.414 629.008C618.329 630.203 617.966 631.013 617.326 631.44C617.027 631.653 616.729 631.739 616.43 631.696C616.089 631.696 615.79 631.589 615.534 631.376C614.851 630.864 614.51 630.075 614.51 629.008V628.944C614.723 626.725 614.318 625.061 613.294 623.952C612.441 623.056 611.097 622.48 609.262 622.224H609.198C608.899 622.181 608.601 622.16 608.302 622.16C605.998 622.288 604.27 623.333 603.118 625.296C601.923 627.301 601.326 630.288 601.326 634.256V634.448H608.942C609.283 634.448 609.454 634.619 609.454 634.96C609.454 635.301 609.283 635.472 608.942 635.472H601.326V664.976H602.542C602.883 664.976 603.054 665.147 603.054 665.488C603.054 665.829 602.883 666 602.542 666H595.374C594.99 666 594.798 665.829 594.798 665.488C594.798 665.147 594.99 664.976 595.374 664.976H596.526V635.792C596.526 635.749 596.526 635.643 596.526 635.472H594.478C594.137 635.472 593.966 635.301 593.966 634.96C593.966 634.619 594.137 634.448 594.478 634.448H596.526C596.739 629.755 597.977 626.277 600.238 624.016C602.201 622.096 604.782 621.136 607.982 621.136H608.238H608.302C608.643 621.136 608.985 621.157 609.326 621.2C609.411 621.2 609.518 621.221 609.646 621.264H609.71H609.774H609.838H609.902H609.966H610.03L610.094 621.328H610.158H610.222H610.286H610.35L610.414 621.392H610.478H610.542H610.606L610.798 621.456C611.31 621.584 611.779 621.733 612.206 621.904H612.27C613.123 622.203 613.934 622.608 614.702 623.12L614.766 623.184H614.83L614.958 623.248C615.214 623.461 615.449 623.653 615.662 623.824C617.326 625.189 618.243 626.747 618.414 628.496V628.624V628.688V628.816ZM695.328 664.976C695.67 664.976 695.84 665.147 695.84 665.488C695.84 665.829 695.67 666 695.328 666H688.16C687.776 666 687.584 665.829 687.584 665.488C687.584 665.147 687.776 664.976 688.16 664.976H689.312V646.416C689.312 645.947 689.312 645.52 689.312 645.136C689.142 642.192 688.523 639.952 687.456 638.416C686.39 636.923 684.939 636.176 683.104 636.176C682.976 636.176 682.87 636.176 682.785 636.176C682.742 636.176 682.72 636.176 682.72 636.176C682.336 636.219 681.974 636.304 681.632 636.432C679.67 636.987 678.07 638.181 676.832 640.016C675.808 641.552 675.296 643.685 675.296 646.416V646.48V646.544V646.736V646.8V646.992V664.976H676.448C676.79 664.976 676.96 665.147 676.96 665.488C676.96 665.829 676.79 666 676.448 666H669.28C668.939 666 668.768 665.829 668.768 665.488C668.768 665.147 668.939 664.976 669.28 664.976H670.496V646.416C670.496 645.947 670.475 645.52 670.432 645.136C670.304 642.192 669.686 639.952 668.576 638.416C667.552 636.923 666.123 636.176 664.288 636.176C664.16 636.176 664.054 636.176 663.968 636.176C663.243 636.261 662.56 636.453 661.92 636.752C659.019 637.947 657.142 640.421 656.288 644.176V644.24L656.224 644.304C655.584 649.296 654.091 652.517 651.744 653.968C650.848 654.48 649.91 654.715 648.928 654.672C648.032 654.629 647.179 654.373 646.368 653.904C645.6 653.435 644.96 652.816 644.448 652.048V664.976H645.664C646.006 664.976 646.176 665.147 646.176 665.488C646.176 665.829 646.006 666 645.664 666H640.16C639.819 666 639.648 665.829 639.648 665.488V659.6C639.307 660.325 638.902 661.008 638.432 661.648C637.664 662.672 636.747 663.504 635.68 664.144C634.614 664.784 633.462 665.232 632.224 665.488C632.224 665.531 632.203 665.552 632.16 665.552H632.096H632.032H631.968H631.904L631.84 665.616H631.776H631.712H631.648H631.584H631.52H631.456L631.392 665.68H631.328H631.264H631.2H631.136H631.072H631.008H630.944H630.88H630.816H630.752V665.744H630.688H630.624H630.56H630.496H630.432H630.368H630.304H630.24H630.176H630.048H629.92H629.792H629.664H629.6H629.472H629.344L629.28 665.68H629.152H629.024H628.896H628.832H628.704L628.576 665.616H628.512H628.384H628.256L628.192 665.552H628.064H627.936L627.808 665.488H627.744H627.616L627.488 665.424H627.424L627.296 665.36H627.168H627.104L626.976 665.296H626.848L626.784 665.232H626.656L626.528 665.168L626.464 665.104H626.336L626.272 665.04H626.144L626.016 664.976L625.952 664.912H625.824L625.696 664.848L625.632 664.784H625.504L625.44 664.72L625.312 664.656L625.248 664.592L625.12 664.528H624.992L624.928 664.464L624.8 664.4L624.736 664.336L624.608 664.272L624.544 664.208L624.416 664.144L624.352 664.08H624.224L624.16 664.016L624.032 663.952L623.968 663.888L623.84 663.76L623.776 663.696L623.648 663.632L623.584 663.568L623.456 663.504L623.392 663.44C621.302 661.776 619.936 659.451 619.296 656.464C619.083 655.355 618.976 654.181 618.976 652.944V643.344C618.976 641.936 618.87 640.976 618.656 640.464C618.443 639.952 617.952 639.547 617.184 639.248C616.886 639.163 616.8 638.949 616.928 638.608C616.971 638.48 617.056 638.395 617.184 638.352C618.678 637.584 619.766 637.008 620.448 636.624C621.43 636.027 622.24 635.365 622.88 634.64C623.136 634.384 623.392 634.384 623.648 634.64C623.734 634.725 623.776 634.853 623.776 635.024V645.008V653.648C623.776 654.416 623.819 655.163 623.904 655.888C624.118 658.832 624.864 661.029 626.144 662.48C627.339 663.845 629.003 664.528 631.136 664.528C631.435 664.528 631.734 664.507 632.032 664.464C634.379 663.995 636.235 662.843 637.6 661.008C638.923 659.259 639.606 657.125 639.648 654.608V643.28C639.648 641.872 639.542 640.912 639.328 640.4C639.115 639.888 638.624 639.504 637.856 639.248C637.558 639.12 637.451 638.885 637.536 638.544C637.622 638.416 637.707 638.331 637.792 638.288C639.328 637.52 640.438 636.944 641.12 636.56C642.102 635.963 642.912 635.301 643.552 634.576C643.808 634.32 644.064 634.32 644.32 634.576C644.406 634.661 644.448 634.789 644.448 634.96V648.72C644.448 648.763 644.448 648.784 644.448 648.784C644.448 649.637 644.683 650.448 645.152 651.216C645.622 651.941 646.219 652.539 646.944 653.008C647.584 653.392 648.267 653.605 648.992 653.648C649.76 653.691 650.486 653.499 651.168 653.072C651.254 653.029 651.36 652.965 651.488 652.88V643.28C651.488 641.872 651.36 640.912 651.104 640.4C650.891 639.888 650.422 639.504 649.696 639.248C649.355 639.12 649.248 638.885 649.376 638.544C649.419 638.416 649.504 638.331 649.632 638.288C651.168 637.52 652.256 636.944 652.896 636.56C653.878 635.963 654.71 635.301 655.392 634.576C655.606 634.32 655.84 634.32 656.096 634.576C656.224 634.661 656.288 634.789 656.288 634.96V640.976C657.483 638.459 659.232 636.709 661.536 635.728C663.03 635.131 664.566 634.939 666.144 635.152C667.766 635.323 669.238 635.877 670.56 636.816C670.603 636.859 670.667 636.901 670.752 636.944L670.816 637.008L670.944 637.136H671.008V637.2L671.136 637.264L671.2 637.328L671.264 637.392L671.328 637.456H671.392L671.456 637.52L671.52 637.584L671.584 637.648L671.648 637.712L671.712 637.776L671.84 637.84L671.904 637.968L671.968 638.032L672.032 638.096L672.096 638.16L672.16 638.224L672.224 638.288L672.288 638.352V638.416L672.352 638.48L672.48 638.544C672.48 638.587 672.502 638.629 672.544 638.672C672.587 638.715 672.608 638.736 672.608 638.736L672.672 638.864L672.736 638.928L672.8 638.992L672.864 639.056C673.632 640.08 674.23 641.232 674.656 642.512C674.912 641.403 675.339 640.379 675.936 639.44C677.302 637.392 679.115 636.048 681.376 635.408C683.168 634.896 684.96 634.939 686.752 635.536C687.35 635.707 687.947 635.963 688.544 636.304L688.608 636.368H688.673L688.736 636.432H688.8L688.864 636.496C689.419 636.837 689.931 637.221 690.4 637.648C691.979 639.056 693.067 640.891 693.664 643.152V643.28L693.729 643.408V643.472V643.536L693.792 643.6V643.728V643.856L693.856 643.92V643.984V644.048C693.856 644.133 693.878 644.219 693.92 644.304V644.432V644.496L693.984 644.624V644.688V644.752V644.88V644.944L694.049 645.072V645.2V645.264V645.328V645.392V645.52V645.584V645.648L694.112 645.712V645.84V646.032V646.16V646.288V646.352V646.416V646.48V646.544V646.608V646.672V646.736V646.8V646.864V646.992V664.976H695.328ZM657.44 664.976C657.782 664.976 657.952 665.147 657.952 665.488C657.952 665.829 657.782 666 657.44 666H650.272C649.931 666 649.76 665.829 649.76 665.488C649.76 665.147 649.931 664.976 650.272 664.976H651.488V655.056C651.702 654.971 651.936 654.843 652.192 654.672C654.027 653.563 655.392 651.493 656.288 648.464V664.976H657.44Z" fill="white"/>
</g>
<defs>
<filter id="filter0_d_46_2" x="169" y="476.856" width="734.743" height="110.144" filterUnits="userSpaceOnUse" color-interpolation-filters="sRGB">
<feFlood flood-opacity="0" result="BackgroundImageFix"/>
<feColorMatrix in="SourceAlpha" type="matrix" values="0 0 0 0 0 0 0 0 0 0 0 0 0 0 0 0 0 0 127 0" result="hardAlpha"/>
<feOffset dy="4"/>
<feGaussianBlur stdDeviation="2"/>
<feComposite in2="hardAlpha" operator="out"/>
<feColorMatrix type="matrix" values="0 0 0 0 0 0 0 0 0 0 0 0 0 0 0 0 0 0 0.25 0"/>
<feBlend mode="normal" in2="BackgroundImageFix" result="effect1_dropShadow_46_2"/>
<feBlend mode="normal" in="SourceGraphic" in2="effect1_dropShadow_46_2" result="shape"/>
</filter>
<filter id="filter1_d_46_2" x="378.6" y="621.136" width="321.24" height="69.9519" filterUnits="userSpaceOnUse" color-interpolation-filters="sRGB">
<feFlood flood-opacity="0" result="BackgroundImageFix"/>
<feColorMatrix in="SourceAlpha" type="matrix" values="0 0 0 0 0 0 0 0 0 0 0 0 0 0 0 0 0 0 127 0" result="hardAlpha"/>
<feOffset dy="4"/>
<feGaussianBlur stdDeviation="2"/>
<feComposite in2="hardAlpha" operator="out"/>
<feColorMatrix type="matrix" values="0 0 0 0 0 0 0 0 0 0 0 0 0 0 0 0 0 0 0.25 0"/>
<feBlend mode="normal" in2="BackgroundImageFix" result="effect1_dropShadow_46_2"/>
<feBlend mode="normal" in="SourceGraphic" in2="effect1_dropShadow_46_2" result="shape"/>
</filter>
</defs>
</svg>
